<?xml version="1.0" encoding="utf-8"?>
<!-- Generator: Adobe Illustrator 22.1.0, SVG Export Plug-In . SVG Version: 6.00 Build 0)  -->
<svg version="1.1" id="圖層_1" xmlns="http://www.w3.org/2000/svg" xmlns:xlink="http://www.w3.org/1999/xlink" x="0px" y="0px"
	 viewBox="0 0 324.2 85.8" style="enable-background:new 0 0 324.2 85.8;" xml:space="preserve">
<style type="text/css">
	.st0{display:none;}
	.st1{display:inline;fill:#535353;}
	.st2{fill:#E64087;}
</style>
<g class="st0">
	<path class="st1" d="M13.4,61.9c-0.7-0.3-1.6-0.7-1.9-1.5c-0.3-0.9,0-2.7,0.1-3.4l4-22.7l13.6,27.5c0.2,0.5,0.4,0.6,0.7,0.1
		l12.7-27.8l4.1,24.6c0.1,0.8,0.4,2.1-0.9,3.2c-0.5,0.4-0.2,0.8,0.4,0.7c0.2-0.1,2.1-0.3,3.2-0.3c1.1,0,3.1,0.1,4.1,0.3
		c0.8,0.2,0.9-0.5,0.5-0.6c-0.8-0.3-2.6-0.5-3-2.7l-4.8-28.4c-0.3-2,0.9-3,2.7-3.2c0.5-0.1,0.6-0.8-0.3-0.7
		c-1.1,0.1-3.1,0.2-3.8,0.2s-2.3-0.1-2.9-0.2c-0.5,0-0.7,0.3-0.5,0.9s0.1,1.5-0.2,2.3l-11,24.5l-12-24.4c-0.4-0.7-0.6-2-0.4-2.6
		c0.2-0.4,0-0.8-0.5-0.7c-0.5,0.1-2.2,0.1-3,0.1c-0.9,0-3.6-0.1-4.1-0.1c-0.6,0-0.7,0.6-0.2,0.8c1.2,0.2,2.1,0.6,2.7,1.2
		c0.4,0.4,0.9,1.2,0.7,2.2l-5,27.4c-0.3,1.5-0.7,2.8-2.9,3.4c-0.4,0.1-0.3,0.8,0.2,0.7c1.2-0.3,2.4-0.4,3.9-0.4
		c1.6,0,3.1,0.3,3.6,0.4C13.6,62.8,13.9,62.1,13.4,61.9z"/>
	<path class="st1" d="M66,58.9c-0.2,0.5-0.7,1.9,0.1,3.2c0.2,0.3-0.1,0.7-0.5,0.6c-0.3-0.1-1.1-0.3-2.5-0.3c-1.3,0-2.1,0.2-3.2,0.3
		c-0.5,0.1-0.7-0.6-0.2-0.7c1.9-0.5,2.9-2,3.4-3l14.1-32.1c0.2-0.5,0.5-0.6,0.8,0l13.3,31.3c0.9,1.9,2,3.2,3.5,3.7
		c0.5,0.2,0.3,0.8-0.1,0.8c-0.5-0.1-1.9-0.4-3.9-0.4s-2.7,0.2-3.6,0.4c-0.3,0.1-0.7-0.2-0.4-0.6c1.1-1.6,0.1-3.6-0.1-4l-2-4.7H68.4
		L66,58.9z M83.9,51.2l-7.3-17.6l-7.3,17.6L83.9,51.2z"/>
	<path class="st1" d="M127,58c0.6,0.8,2.7,3.8,6.5,3.8c0.6,0,0.5,0.7,0,0.8c-4.2,0.2-6.7-0.1-10.4-4c-2.5-2.7-9.1-11.3-10.5-13.1
		c-0.2-0.2-0.3-0.5,0.1-0.5c0.5,0,4.8,0.5,7.3-3.2c2.6-3.8,1.2-8.2,0.9-9c-0.3-0.8-1.8-4.3-6.5-4.6c-1.6-0.1-3,0.5-3.3,0.7
		s-0.7,0.5-0.8,1.3v29.1c0,1.8,1.2,2.4,2.2,2.7c0.5,0.2,0.3,0.8-0.2,0.7s-2.2-0.3-4-0.3s-3.3,0.1-4,0.3c-0.4,0.1-0.6-0.5-0.2-0.7
		c1.3-0.5,2.1-1.4,2.1-2.7V30c0-0.7-0.7-2-2.1-2.4c-0.5-0.1-0.4-0.8,0.2-0.7c0.4,0.1,1.5,0.3,3.3,0.3c1.1,0,5.5-0.5,7.1-0.5
		c2.2,0,5.9,0.5,8.3,2.9c2.2,2.2,2.6,4.9,2.7,6.1c0,1.7-0.4,4.8-2.8,7.3c-2,2-4.2,2.6-4.7,2.8c-0.2,0.1-0.3,0.2-0.1,0.3L127,58z"/>
	<path class="st1" d="M152.6,60.7L139.9,32c-0.4-0.9-1.5-3.3-4.1-4.5c-0.4-0.2-0.2-0.8,0.2-0.7c1.5,0.2,3,0.3,4,0.3s3.8-0.3,4.5-0.3
		c0.3,0,0.5,0.4,0.3,0.7c-0.4,0.3-1.7,1.4-0.9,3.2L155.1,56l13.4-25.1c0.5-1,0.5-2.8-0.7-3.6c-0.3-0.2-0.2-0.8,0.2-0.7
		c0.6,0.1,2.7,0.3,3.8,0.3c1,0,3-0.1,3.5-0.2c0.3,0,0.6,0.5,0.2,0.7c-1.1,0.5-2.4,1-4.5,4.8l-20,37.6c-1.1,2-3.9,4.7-8.5,4.4
		c-0.4,0-0.6-0.6,0-0.8c1.1-0.2,3.9-0.9,5.2-3.4L152.6,60.7z"/>
	<path class="st1" d="M203.7,27.1c1.1,0,3.1-0.1,3.9-0.2c0.4-0.1,0.7,0.6,0.1,0.7c-0.5,0.1-1.7,0.5-1.7,2.1V59
		c0,0.9,0.2,2.4,1.9,2.8c0.5,0.1,0.3,0.8-0.1,0.7c-1.2-0.2-2.4-0.3-3.9-0.3s-3.4,0.1-4.1,0.2c-0.6,0.1-0.7-0.6-0.1-0.7
		c1.1-0.2,2.2-1,2.2-2.7s0-28.4,0-29.3c0-1.3-1.4-1.9-1.8-2c-0.4-0.1-0.4-0.8,0.1-0.7C200.9,27,202.5,27.1,203.7,27.1z"/>
	<path class="st1" d="M234.3,59.2L248.5,27c0.2-0.5,0.5-0.6,0.8,0l13.3,31.3c0.9,1.9,2,3.2,3.5,3.7c0.5,0.2,0.3,0.8-0.1,0.7
		c-0.5-0.1-1.9-0.4-3.9-0.4s-2.7,0.2-3.6,0.4c-0.3,0.1-0.7-0.2-0.4-0.6c1.1-1.6,0.1-3.6-0.1-4l-2-4.7h-16.5l-2.4,5.6
		c-0.2,0.5-0.7,1.9,0.1,3.2c0.2,0.3-0.1,0.7-0.5,0.6c-0.3-0.1-1.1-0.3-2.5-0.3c-1.2,0-2.4,0.1-3.3,0.1c-0.7,0-2.9,0.2-5.7-1.2
		c-3.9-2-9.4-8.5-10.3-9.5l-7.9-9c-0.2-0.2-0.1-0.3,0-0.5l12.1-12.8c0.9-1,1-1.7,0.9-2c0-0.3,0-0.8,0.6-0.7c0.6,0.1,1.4,0.2,2.9,0.2
		s2-0.1,3.1-0.2c0.5,0,0.6,0.7,0.1,0.7c-2,0.4-4.2,1.6-6,3.4l-9.8,10.3l14,16.4c1.4,1.6,2.7,2.6,3.6,3.1c1.4,0.7,2.6,0.6,3.3,0.4
		C233.3,60.9,233.9,60.1,234.3,59.2z M255.1,51.4l-7.3-17.6l-7.3,17.6H255.1z"/>
	<path class="st1" d="M284.3,60.7L271.7,32c-0.4-0.9-1.5-3.3-4.1-4.5c-0.4-0.2-0.2-0.8,0.2-0.7c1.5,0.2,3,0.3,4,0.3s3.8-0.3,4.5-0.3
		c0.3,0,0.5,0.4,0.2,0.7c-0.4,0.3-1.7,1.4-0.9,3.2L286.9,56l13.4-25.1c0.5-1,0.5-2.8-0.6-3.6c-0.3-0.2-0.2-0.8,0.2-0.7
		c0.6,0.1,2.7,0.3,3.8,0.3c1,0,3-0.1,3.5-0.2c0.3,0,0.6,0.5,0.2,0.7c-1.1,0.5-2.4,1-4.5,4.8l-20,37.6c-1.1,2-3.9,4.7-8.5,4.4
		c-0.4,0-0.6-0.6,0-0.8c1.1-0.2,3.9-0.9,5.2-3.4L284.3,60.7z"/>
	<path class="st1" d="M313.1,28.2h2.3c1.4,0,2,0.6,2,1.7c0,1-0.7,1.5-1.6,1.6l1.9,2.9h-0.6l-1.9-2.9h-1.6v2.9h-0.5L313.1,28.2
		L313.1,28.2z M313.6,31h1.3c0.9,0,2-0.1,2-1.2c0-1-0.8-1.2-1.6-1.2h-1.7L313.6,31L313.6,31z M310.3,31.3c0,2.7,2.1,4.8,4.7,4.8
		c2.7,0,4.7-2.2,4.7-4.8c0-2.7-2-4.8-4.7-4.8S310.3,28.5,310.3,31.3z M320.3,31.3c0,2.9-2.3,5.3-5.3,5.3c-2.9,0-5.3-2.3-5.3-5.3
		c0-2.9,2.3-5.3,5.3-5.3C317.9,26,320.3,28.4,320.3,31.3z"/>
</g>
<g>
	<g>
		<rect x="16.2" y="23.2" class="st2" width="41.2" height="51.1"/>
		<g>
			<path class="st2" d="M26.4,25.4c0-0.1-0.3-1.8-0.2-4.1c0.1-2.1,0.7-5.1,2.6-7.4c1.8-2.2,4.6-3.3,8.2-3.3c0.2,0,4.4,0,7.4,3.2
				c2.4,2.6,3.4,6.5,3,11.5l-0.7-0.1c0.4-4.8-0.5-8.5-2.8-11c-2.8-3-6.8-3-6.9-3c-3.4,0-5.9,1-7.6,3.1c-3.4,4.1-2.3,10.8-2.2,10.9
				L26.4,25.4z"/>
		</g>
	</g>
	<g>
		<g>
			<path class="st2" d="M93.8,49.9H81.1v21.9H79V24.9h14.8c8.5,0,13.2,5.7,13.2,12.4C107,44.2,102.3,49.9,93.8,49.9z M81.1,26.8
				v21.1h13c6.5,0,10.7-4.1,10.7-10.6c0-6.3-4.2-10.4-10.7-10.4H81.1z"/>
			<path class="st2" d="M114.7,27.2c0.9,0,1.7,0.7,1.7,1.7c0,0.9-0.7,1.7-1.7,1.7c-0.9,0-1.7-0.7-1.7-1.7
				C113,27.9,113.7,27.2,114.7,27.2z M113.7,71.8V38.7h2v33.1H113.7z"/>
			<path class="st2" d="M149.4,48.7c0-6.1-4.1-8.8-9.9-8.8c-5.6,0-10.2,3.4-12.6,6.1v25.8h-2.1V38.7h1.9v5c3-3.2,7.9-5.7,12.6-5.7
				c8.2,0,12,4.2,12,10.9v22.8h-2.1V48.7z"/>
			<path class="st2" d="M160.2,71.8V22.2h2v33l18.2-16.5h2.7l-14.4,13.1l16,20H182l-14.8-18.6l-5,4.5v14.1H160.2z"/>
			<path class="st2" d="M203.9,24.9h2.6l20.1,43l20.2-43h2.5v46.9h-2.1V28.6L227,71.8h-1l-20.2-43.2v43.2h-2V24.9z"/>
			<path class="st2" d="M261.1,46.5l-1.9-0.6c1.7-4.6,5.2-7.8,12.4-7.8c7.6,0,12.7,3.2,12.8,10.1v23.7h-2v-6
				c-1.7,3.2-6.5,6.7-13.2,6.7c-6.3,0-11-3.6-11-9.3c0-7.1,5.8-8.5,13-9.5c3-0.4,8.9-0.7,11.2-0.7v-5.3c0-4.9-4.2-7.7-10.6-7.7
				C265,40,262.4,43,261.1,46.5z M282.3,54.7c-14.9,0.3-22.2,1.7-22.2,8.3c0,4.2,2.3,7.7,9.4,7.7c5.6,0,12.8-3.6,12.8-10.4V54.7z"/>
			<path class="st2" d="M294,71.8V22.2h2v49.6H294z"/>
			<path class="st2" d="M306,71.8V22.2h2v49.6H306z"/>
		</g>
	</g>
</g>
</svg>
